<svg width="33" height="32" viewBox="0 0 33 32" fill="none" xmlns="http://www.w3.org/2000/svg">
<rect x="0.666687" width="32" height="32" rx="16" fill="white"/>
<path d="M20.9088 20.2426C21.1692 19.9822 21.1692 19.5601 20.9088 19.2997L17.6095 16.0004L20.9097 12.7001C21.1701 12.4397 21.1701 12.0176 20.9097 11.7573C20.6494 11.4969 20.2273 11.4969 19.9669 11.7573L16.6666 15.0576L13.3664 11.7573C13.106 11.4969 12.6839 11.4969 12.4235 11.7573C12.1632 12.0176 12.1632 12.4397 12.4235 12.7001L15.7238 16.0004L12.4245 19.2997C12.1641 19.5601 12.1641 19.9822 12.4245 20.2426C12.6848 20.5029 13.1069 20.5029 13.3673 20.2426L16.6666 16.9432L19.966 20.2426C20.2264 20.5029 20.6485 20.5029 20.9088 20.2426Z" fill="#4B4B4C"/>
</svg>
