<svg width="16" height="16" viewBox="0 0 16 16" fill="none" xmlns="http://www.w3.org/2000/svg">
<path d="M12.2421 12.2426C12.5025 11.9822 12.5025 11.5601 12.2421 11.2997L8.94275 8.00037L12.243 4.70009C12.5034 4.43974 12.5034 4.01763 12.243 3.75728C11.9827 3.49693 11.5606 3.49693 11.3002 3.75728L7.99994 7.05756L4.69966 3.75727C4.43931 3.49692 4.0172 3.49692 3.75685 3.75727C3.4965 4.01762 3.4965 4.43973 3.75685 4.70008L7.05713 8.00037L3.75775 11.2997C3.4974 11.5601 3.4974 11.9822 3.75775 12.2426C4.0181 12.5029 4.44021 12.5029 4.70056 12.2426L7.99994 8.94318L11.2993 12.2426C11.5597 12.5029 11.9818 12.5029 12.2421 12.2426Z" fill="#4B4B4C"/>
</svg>
