<svg width="64" height="64" viewBox="0 0 64 64" fill="none" xmlns="http://www.w3.org/2000/svg">
<path d="M24 34L30 40L40 26M56 32C56 35.3813 54.32 38.3733 51.752 40.1813C52.0287 41.7621 51.9204 43.3862 51.4362 44.9161C50.9521 46.4461 50.1063 47.8369 48.9707 48.9707C47.8369 50.1063 46.4461 50.9521 44.9161 51.4362C43.3862 51.9204 41.762 52.0287 40.1813 51.752C39.2592 53.0653 38.0343 54.137 36.6101 54.8765C35.186 55.6159 33.6047 56.0013 32 56C28.6187 56 25.6267 54.32 23.8187 51.752C22.238 52.0285 20.6139 51.92 19.084 51.4359C17.554 50.9517 16.1632 50.1062 15.0293 48.9707C13.8937 47.8369 13.0479 46.4461 12.5638 44.9161C12.0796 43.3862 11.9713 41.7621 12.248 40.1813C10.9347 39.2592 9.86299 38.0343 9.12354 36.6101C8.38408 35.186 7.99869 33.6047 8 32C8 28.6187 9.68 25.6267 12.248 23.8187C11.9713 22.238 12.0796 20.6138 12.5638 19.0839C13.0479 17.5539 13.8937 16.1631 15.0293 15.0293C16.1632 13.8939 17.554 13.0483 19.084 12.5641C20.6139 12.08 22.238 11.9715 23.8187 12.248C24.7409 10.9349 25.9659 9.86327 27.39 9.12384C28.8141 8.38441 30.3954 7.99892 32 8C35.3813 8 38.3733 9.68 40.1813 12.248C41.762 11.9715 43.3861 12.08 44.916 12.5641C46.446 13.0483 47.8367 13.8939 48.9707 15.0293C50.1061 16.1633 50.9517 17.554 51.4359 19.084C51.92 20.6139 52.0285 22.238 51.752 23.8187C53.0653 24.7408 54.137 25.9657 54.8765 27.3899C55.6159 28.814 56.0013 30.3953 56 32Z" stroke="#4B4B4C" stroke-width="4" stroke-linecap="round" stroke-linejoin="round"/>
</svg>
