<svg width="64" height="64" viewBox="0 0 64 64" fill="none" xmlns="http://www.w3.org/2000/svg">
<path d="M8 23.1707C8 20.8667 10.488 19.4213 12.488 20.5653L31.4427 31.3947C31.9021 31.657 32.2841 32.0361 32.5497 32.4937C32.8154 32.9512 32.9553 33.4709 32.9553 34C32.9553 34.5291 32.8154 35.0487 32.5497 35.5063C32.2841 35.9639 31.9021 36.343 31.4427 36.6053L12.488 47.4347C12.0317 47.6953 11.515 47.8315 10.9895 47.8297C10.4641 47.8278 9.9483 47.688 9.49385 47.4242C9.03941 47.1604 8.66223 46.7819 8.40006 46.3265C8.13789 45.8711 7.99994 45.3548 8 44.8293V23.1707ZM34 23.1707C34 20.8667 36.488 19.4213 38.488 20.5653L57.4427 31.3947C57.9021 31.657 58.2841 32.0361 58.5497 32.4937C58.8154 32.9512 58.9553 33.4709 58.9553 34C58.9553 34.5291 58.8154 35.0487 58.5497 35.5063C58.2841 35.9639 57.9021 36.343 57.4427 36.6053L38.488 47.4347C38.0317 47.6953 37.515 47.8315 36.9895 47.8297C36.4641 47.8278 35.9483 47.688 35.4939 47.4242C35.0394 47.1604 34.6622 46.7819 34.4001 46.3265C34.1379 45.8711 33.9999 45.3548 34 44.8293V23.1707Z" stroke="#4B4B4C" stroke-width="3" stroke-linecap="round" stroke-linejoin="round"/>
</svg>
