<svg width="205" height="25" viewBox="0 0 205 25" fill="none" xmlns="http://www.w3.org/2000/svg">
<g clip-path="url(#clip0_43_228)">
<path d="M15.4289 0C12.8905 0 10.4561 1.00838 8.66117 2.8033L2.8033 8.66117C1.00838 10.4561 0 12.8905 0 15.4289C0 20.7149 4.28512 25 9.57108 25C12.1095 25 14.5439 23.9916 16.3388 22.1967L20.3908 18.1448C20.3908 18.1447 20.3908 18.1448 20.3908 18.1448L32.1967 6.33883C33.0539 5.48159 34.2166 5 35.4289 5C37.4586 5 39.1793 6.32284 39.7759 8.15339L43.5018 4.42747C41.8021 1.76528 38.8217 0 35.4289 0C32.8905 0 30.4561 1.00838 28.6612 2.8033L12.8033 18.6612C11.9461 19.5184 10.7834 20 9.57108 20C7.04653 20 5 17.9535 5 15.4289C5 14.2166 5.48159 13.0539 6.33883 12.1967L12.1967 6.33883C13.0539 5.48159 14.2166 5 15.4289 5C17.4587 5 19.1793 6.3229 19.7759 8.15351L23.5019 4.42756C21.8022 1.76533 18.8217 0 15.4289 0Z" fill="#75AE2B"/>
<path d="M32.8033 18.6612C31.9461 19.5184 30.7834 20 29.5711 20C27.5416 20 25.8211 18.6775 25.2243 16.8472L21.4985 20.5731C23.1983 23.2349 26.1786 25 29.5711 25C32.1095 25 34.5439 23.9916 36.3388 22.1967L52.1966 6.33883C53.0539 5.48159 54.2166 5 55.4289 5C57.9535 5 60 7.04653 60 9.57108C60 10.7834 59.5184 11.9461 58.6611 12.8033L52.8033 18.6612C51.9461 19.5184 50.7834 20 49.5711 20C47.5415 20 45.8208 18.6772 45.2241 16.8468L41.4983 20.5728C43.1981 23.2348 46.1784 25 49.5711 25C52.1095 25 54.5439 23.9916 56.3388 22.1967L62.1966 16.3388C63.9916 14.5439 65 12.1095 65 9.57108C65 4.28512 60.7149 0 55.4289 0C52.8905 0 50.4561 1.00838 48.6611 2.8033L32.8033 18.6612Z" fill="#75AE2B"/>
</g>
<path d="M79.4205 20H74.2642V5.45455H79.4631C80.9261 5.45455 82.1856 5.74574 83.2415 6.32812C84.2973 6.90578 85.1094 7.73674 85.6776 8.82102C86.2505 9.9053 86.5369 11.2027 86.5369 12.7131C86.5369 14.2282 86.2505 15.5303 85.6776 16.6193C85.1094 17.7083 84.2926 18.544 83.2273 19.1264C82.1667 19.7088 80.8977 20 79.4205 20ZM77.3395 17.3651H79.2926C80.2017 17.3651 80.9664 17.2041 81.5866 16.8821C82.2116 16.5554 82.6804 16.0511 82.9929 15.3693C83.3101 14.6828 83.4688 13.7973 83.4688 12.7131C83.4688 11.6383 83.3101 10.7599 82.9929 10.0781C82.6804 9.39631 82.214 8.89441 81.5938 8.57244C80.9735 8.25047 80.2088 8.08949 79.2997 8.08949H77.3395V17.3651ZM88.7582 20V9.09091H91.6914V10.9943H91.805C92.0039 10.3172 92.3377 9.80587 92.8065 9.46023C93.2752 9.10985 93.815 8.93466 94.4258 8.93466C94.5773 8.93466 94.7406 8.94413 94.9158 8.96307C95.091 8.98201 95.2449 9.00805 95.3775 9.04119V11.7259C95.2354 11.6832 95.0389 11.6454 94.788 11.6122C94.5371 11.5791 94.3074 11.5625 94.0991 11.5625C93.654 11.5625 93.2563 11.6596 92.9059 11.8537C92.5603 12.0431 92.2856 12.3082 92.082 12.6491C91.8832 12.9901 91.7837 13.383 91.7837 13.8281V20H88.7582ZM103.938 15.3551V9.09091H106.963V20H104.058V18.0185H103.945C103.698 18.6577 103.289 19.1714 102.716 19.5597C102.148 19.9479 101.454 20.142 100.635 20.142C99.9058 20.142 99.2642 19.9763 98.7102 19.6449C98.1563 19.3134 97.723 18.8423 97.4105 18.2315C97.1027 17.6207 96.9465 16.8892 96.9418 16.0369V9.09091H99.9673V15.4972C99.9721 16.1411 100.145 16.6501 100.486 17.0241C100.827 17.3982 101.284 17.5852 101.857 17.5852C102.221 17.5852 102.562 17.5024 102.879 17.3366C103.196 17.1662 103.452 16.9152 103.646 16.5838C103.845 16.2524 103.942 15.8428 103.938 15.3551ZM112.409 13.6932V20H109.383V9.09091H112.267V11.0156H112.395C112.636 10.3812 113.041 9.87926 113.609 9.50994C114.177 9.13589 114.866 8.94886 115.676 8.94886C116.433 8.94886 117.094 9.11458 117.657 9.44602C118.221 9.77746 118.659 10.2509 118.971 10.8665C119.284 11.4773 119.44 12.2064 119.44 13.054V20H116.414V13.5938C116.419 12.9261 116.249 12.4053 115.903 12.0312C115.557 11.6525 115.082 11.4631 114.475 11.4631C114.068 11.4631 113.708 11.5507 113.396 11.7259C113.088 11.901 112.847 12.1567 112.672 12.4929C112.501 12.8243 112.413 13.2244 112.409 13.6932ZM126.739 24.3182C125.759 24.3182 124.919 24.1832 124.218 23.9134C123.522 23.6482 122.968 23.286 122.556 22.8267C122.144 22.3674 121.877 21.8513 121.754 21.2784L124.552 20.902C124.637 21.1198 124.772 21.3234 124.957 21.5128C125.141 21.7022 125.385 21.8537 125.688 21.9673C125.996 22.0857 126.37 22.1449 126.81 22.1449C127.469 22.1449 128.011 21.9839 128.437 21.6619C128.868 21.3447 129.083 20.812 129.083 20.0639V18.0682H128.955C128.823 18.3712 128.624 18.6577 128.359 18.9276C128.094 19.1974 127.753 19.4176 127.336 19.5881C126.919 19.7585 126.422 19.8438 125.844 19.8438C125.025 19.8438 124.28 19.6544 123.607 19.2756C122.94 18.892 122.407 18.3073 122.009 17.5213C121.616 16.7306 121.42 15.7315 121.42 14.5241C121.42 13.2884 121.621 12.2562 122.023 11.4276C122.426 10.599 122.961 9.97869 123.629 9.56676C124.301 9.15483 125.037 8.94886 125.837 8.94886C126.448 8.94886 126.96 9.05303 127.371 9.26136C127.783 9.46496 128.115 9.72064 128.366 10.0284C128.621 10.3314 128.818 10.6297 128.955 10.9233H129.069V9.09091H132.073V20.1065C132.073 21.0346 131.846 21.8111 131.391 22.4361C130.937 23.0611 130.307 23.5298 129.502 23.8423C128.702 24.1596 127.781 24.3182 126.739 24.3182ZM126.803 17.571C127.291 17.571 127.703 17.4503 128.039 17.2088C128.38 16.9626 128.64 16.6122 128.82 16.1577C129.005 15.6984 129.097 15.1491 129.097 14.5099C129.097 13.8707 129.007 13.3168 128.827 12.848C128.647 12.3745 128.387 12.0076 128.046 11.7472C127.705 11.4867 127.291 11.3565 126.803 11.3565C126.306 11.3565 125.887 11.4915 125.546 11.7614C125.205 12.0265 124.947 12.3958 124.772 12.8693C124.597 13.3428 124.509 13.8897 124.509 14.5099C124.509 15.1397 124.597 15.6842 124.772 16.1435C124.952 16.598 125.21 16.9508 125.546 17.2017C125.887 17.4479 126.306 17.571 126.803 17.571ZM143.558 12.2017L140.788 12.3722C140.74 12.1354 140.638 11.9223 140.482 11.733C140.326 11.5388 140.12 11.3849 139.864 11.2713C139.613 11.1529 139.313 11.0938 138.962 11.0938C138.494 11.0938 138.098 11.1932 137.776 11.392C137.454 11.5862 137.293 11.8466 137.293 12.1733C137.293 12.4337 137.397 12.6539 137.606 12.8338C137.814 13.0137 138.172 13.1581 138.678 13.267L140.653 13.6648C141.713 13.8826 142.504 14.233 143.025 14.7159C143.546 15.1989 143.806 15.8333 143.806 16.6193C143.806 17.3343 143.595 17.9616 143.174 18.5014C142.757 19.0412 142.184 19.4626 141.455 19.7656C140.731 20.0639 139.895 20.2131 138.948 20.2131C137.504 20.2131 136.353 19.9124 135.496 19.3111C134.644 18.705 134.145 17.8812 133.998 16.8395L136.974 16.6832C137.064 17.1236 137.281 17.4598 137.627 17.6918C137.973 17.919 138.415 18.0327 138.955 18.0327C139.486 18.0327 139.912 17.9309 140.234 17.7273C140.56 17.5189 140.726 17.2514 140.731 16.9247C140.726 16.6501 140.61 16.4252 140.383 16.25C140.156 16.0701 139.805 15.9328 139.332 15.8381L137.442 15.4616C136.377 15.2486 135.584 14.8793 135.063 14.3537C134.547 13.8281 134.289 13.1581 134.289 12.3438C134.289 11.643 134.478 11.0393 134.857 10.5327C135.241 10.026 135.778 9.63542 136.469 9.3608C137.165 9.08617 137.98 8.94886 138.913 8.94886C140.29 8.94886 141.375 9.24006 142.165 9.82244C142.961 10.4048 143.425 11.1979 143.558 12.2017ZM150.64 20.2131C149.523 20.2131 148.562 19.9763 147.757 19.5028C146.957 19.0246 146.341 18.3617 145.91 17.5142C145.484 16.6667 145.271 15.6913 145.271 14.5881C145.271 13.4706 145.486 12.4905 145.917 11.6477C146.353 10.8002 146.971 10.1397 147.771 9.66619C148.571 9.18797 149.523 8.94886 150.626 8.94886C151.578 8.94886 152.411 9.12169 153.126 9.46733C153.841 9.81297 154.407 10.2983 154.824 10.9233C155.24 11.5483 155.47 12.2822 155.512 13.125H152.657C152.577 12.5805 152.364 12.1425 152.018 11.8111C151.677 11.4749 151.23 11.3068 150.676 11.3068C150.207 11.3068 149.797 11.4347 149.447 11.6903C149.101 11.9413 148.832 12.3082 148.637 12.7912C148.443 13.2741 148.346 13.8589 148.346 14.5455C148.346 15.2415 148.441 15.8333 148.63 16.321C148.824 16.8087 149.097 17.1804 149.447 17.4361C149.797 17.6918 150.207 17.8196 150.676 17.8196C151.021 17.8196 151.332 17.7486 151.606 17.6065C151.886 17.4645 152.115 17.2585 152.295 16.9886C152.48 16.714 152.6 16.3849 152.657 16.0014H155.512C155.465 16.8348 155.238 17.5687 154.831 18.2031C154.428 18.8329 153.872 19.3253 153.162 19.6804C152.451 20.0355 151.611 20.2131 150.64 20.2131ZM160.475 13.6932V20H157.45V5.45455H160.39V11.0156H160.518C160.764 10.3717 161.162 9.86742 161.711 9.50284C162.26 9.13352 162.949 8.94886 163.778 8.94886C164.535 8.94886 165.196 9.11458 165.759 9.44602C166.327 9.77273 166.768 10.2438 167.08 10.8594C167.397 11.4702 167.554 12.2017 167.549 13.054V20H164.523V13.5938C164.528 12.9214 164.358 12.3982 164.012 12.0241C163.671 11.6501 163.193 11.4631 162.577 11.4631C162.165 11.4631 161.801 11.5507 161.484 11.7259C161.171 11.901 160.925 12.1567 160.745 12.4929C160.57 12.8243 160.48 13.2244 160.475 13.6932ZM173.041 20.206C172.345 20.206 171.725 20.0852 171.18 19.8438C170.636 19.5975 170.205 19.2353 169.887 18.7571C169.575 18.2741 169.419 17.6728 169.419 16.9531C169.419 16.3471 169.53 15.8381 169.752 15.4261C169.975 15.0142 170.278 14.6828 170.662 14.4318C171.045 14.1809 171.481 13.9915 171.968 13.8636C172.461 13.7358 172.977 13.6458 173.517 13.5938C174.151 13.5275 174.663 13.4659 175.051 13.4091C175.439 13.3475 175.721 13.2576 175.896 13.1392C176.071 13.0208 176.159 12.8456 176.159 12.6136V12.571C176.159 12.1212 176.017 11.7732 175.733 11.527C175.453 11.2808 175.056 11.1577 174.539 11.1577C173.995 11.1577 173.562 11.2784 173.24 11.5199C172.918 11.7566 172.705 12.0549 172.6 12.4148L169.802 12.1875C169.944 11.5246 170.224 10.9517 170.64 10.4688C171.057 9.98106 171.594 9.60701 172.252 9.34659C172.915 9.08144 173.682 8.94886 174.554 8.94886C175.16 8.94886 175.74 9.01989 176.294 9.16193C176.852 9.30398 177.347 9.52415 177.778 9.82244C178.214 10.1207 178.557 10.5043 178.808 10.973C179.059 11.437 179.184 11.9934 179.184 12.642V20H176.315V18.4872H176.23C176.055 18.8281 175.82 19.1288 175.527 19.3892C175.233 19.6449 174.88 19.8461 174.468 19.9929C174.056 20.1349 173.581 20.206 173.041 20.206ZM173.907 18.1179C174.352 18.1179 174.745 18.0303 175.086 17.8551C175.427 17.6752 175.695 17.4337 175.889 17.1307C176.083 16.8277 176.18 16.4844 176.18 16.1009V14.9432C176.085 15.0047 175.955 15.0616 175.789 15.1136C175.628 15.161 175.446 15.206 175.243 15.2486C175.039 15.2865 174.835 15.322 174.632 15.3551C174.428 15.3835 174.243 15.4096 174.078 15.4332C173.723 15.4853 173.413 15.5682 173.147 15.6818C172.882 15.7955 172.676 15.9493 172.529 16.1435C172.383 16.3329 172.309 16.5696 172.309 16.8537C172.309 17.2656 172.458 17.5805 172.757 17.7983C173.06 18.0114 173.443 18.1179 173.907 18.1179ZM181.532 20V9.09091H184.557V20H181.532ZM183.051 7.68466C182.602 7.68466 182.216 7.53551 181.894 7.23722C181.577 6.93419 181.418 6.57197 181.418 6.15057C181.418 5.7339 181.577 5.37642 181.894 5.07812C182.216 4.77509 182.602 4.62358 183.051 4.62358C183.501 4.62358 183.885 4.77509 184.202 5.07812C184.524 5.37642 184.685 5.7339 184.685 6.15057C184.685 6.57197 184.524 6.93419 184.202 7.23722C183.885 7.53551 183.501 7.68466 183.051 7.68466ZM190.006 13.6932V20H186.981V9.09091H189.864V11.0156H189.992C190.234 10.3812 190.638 9.87926 191.207 9.50994C191.775 9.13589 192.464 8.94886 193.273 8.94886C194.031 8.94886 194.692 9.11458 195.255 9.44602C195.818 9.77746 196.256 10.2509 196.569 10.8665C196.881 11.4773 197.038 12.2064 197.038 13.054V20H194.012V13.5938C194.017 12.9261 193.846 12.4053 193.501 12.0312C193.155 11.6525 192.679 11.4631 192.073 11.4631C191.666 11.4631 191.306 11.5507 190.994 11.7259C190.686 11.901 190.444 12.1567 190.269 12.4929C190.099 12.8243 190.011 13.2244 190.006 13.6932ZM201.191 20.1847C200.722 20.1847 200.319 20.0189 199.983 19.6875C199.652 19.3513 199.486 18.9489 199.486 18.4801C199.486 18.0161 199.652 17.6184 199.983 17.2869C200.319 16.9555 200.722 16.7898 201.191 16.7898C201.645 16.7898 202.043 16.9555 202.384 17.2869C202.725 17.6184 202.895 18.0161 202.895 18.4801C202.895 18.7926 202.815 19.0791 202.654 19.3395C202.498 19.5952 202.292 19.8011 202.036 19.9574C201.78 20.1089 201.498 20.1847 201.191 20.1847Z" fill="#4B4B4C"/>
<defs>
<clipPath id="clip0_43_228">
<rect width="65" height="25" fill="white"/>
</clipPath>
</defs>
</svg>
