<svg width="32" height="12" viewBox="0 0 32 12" fill="none" xmlns="http://www.w3.org/2000/svg">
<mask id="mask0_210_2789" style="mask-type:luminance" maskUnits="userSpaceOnUse" x="0" y="0" width="32" height="12">
<path d="M31.2 0H0V12H31.2V0Z" fill="white"/>
</mask>
<g mask="url(#mask0_210_2789)">
<path d="M7.40587 0C6.18744 0 5.01893 0.484022 4.15736 1.34558L1.34558 4.15736C0.484022 5.01893 0 6.18744 0 7.40587C0 9.94315 2.05686 12 4.59412 12C5.81256 12 6.98107 11.516 7.84262 10.6544L9.78758 8.7095L15.4544 3.04264C15.8659 2.63116 16.424 2.4 17.0059 2.4C17.9801 2.4 18.8061 3.03496 19.0924 3.91363L20.8809 2.12519C20.065 0.847335 18.6344 0 17.0059 0C15.7874 0 14.6189 0.484022 13.7574 1.34558L6.14558 8.95738C5.73413 9.36883 5.17603 9.6 4.59412 9.6C3.38233 9.6 2.4 8.61768 2.4 7.40587C2.4 6.82397 2.63116 6.26587 3.04264 5.85442L5.85442 3.04264C6.26587 2.63116 6.82397 2.4 7.40587 2.4C8.38018 2.4 9.20606 3.03499 9.49243 3.91368L11.2809 2.12523C10.4651 0.847358 9.03442 0 7.40587 0Z" fill="#75AE2B"/>
<path d="M15.4263 8.95738C15.0148 9.36883 14.4568 9.6 13.8748 9.6C12.9007 9.6 12.0748 8.9652 11.7884 8.08666L10 9.87509C10.8159 11.1528 12.2464 12 13.8748 12C15.0933 12 16.2618 11.516 17.1233 10.6544L24.7351 3.04264C25.1466 2.63116 25.7047 2.4 26.2866 2.4C27.4984 2.4 28.4807 3.38233 28.4807 4.59412C28.4807 5.17603 28.2496 5.73413 27.838 6.14558L25.0263 8.95738C24.6148 9.36883 24.0568 9.6 23.4748 9.6C22.5006 9.6 21.6747 8.96506 21.3883 8.08646L19.5999 9.8749C20.4158 11.1527 21.8464 12 23.4748 12C24.6933 12 25.8618 11.516 26.7233 10.6544L29.5351 7.84262C30.3967 6.98107 30.8807 5.81256 30.8807 4.59412C30.8807 2.05686 28.8239 0 26.2866 0C25.0682 0 23.8996 0.484022 23.038 1.34558L15.4263 8.95738Z" fill="#75AE2B"/>
</g>
</svg>
