<svg width="32" height="12" viewBox="0 0 32 12" fill="none" xmlns="http://www.w3.org/2000/svg">
<path d="M7.40587 0C6.18744 0 5.01893 0.484022 4.15736 1.34558L1.34558 4.15736C0.484022 5.01893 0 6.18744 0 7.40587C0 9.94315 2.05686 12 4.59412 12C5.81256 12 6.98107 11.516 7.84262 10.6544L9.78758 8.7095L15.4544 3.04264C15.8659 2.63116 16.424 2.4 17.0059 2.4C17.9801 2.4 18.8061 3.03496 19.0924 3.91363L20.8809 2.12519C20.065 0.847335 18.6344 0 17.0059 0C15.7874 0 14.6189 0.484022 13.7574 1.34558L6.14558 8.95738C5.73413 9.36883 5.17603 9.6 4.59412 9.6C3.38233 9.6 2.4 8.61768 2.4 7.40587C2.4 6.82397 2.63116 6.26587 3.04264 5.85442L5.85442 3.04264C6.26587 2.63116 6.82397 2.4 7.40587 2.4C8.38018 2.4 9.20606 3.03499 9.49243 3.91368L11.2809 2.12523C10.4651 0.847358 9.03442 0 7.40587 0Z" fill="#75AE2B"/>
<path d="M15.7456 8.95738C15.3341 9.36883 14.776 9.6 14.1941 9.6C13.22 9.6 12.3941 8.9652 12.1077 8.08666L10.3193 9.87509C11.1352 11.1528 12.5657 12 14.1941 12C15.4126 12 16.5811 11.516 17.4426 10.6544L25.0544 3.04264C25.4659 2.63116 26.024 2.4 26.6059 2.4C27.8177 2.4 28.8 3.38233 28.8 4.59412C28.8 5.17603 28.5688 5.73413 28.1573 6.14558L25.3456 8.95738C24.9341 9.36883 24.376 9.6 23.7941 9.6C22.8199 9.6 21.994 8.96506 21.7076 8.08646L19.9192 9.8749C20.7351 11.1527 22.1656 12 23.7941 12C25.0126 12 26.1811 11.516 27.0426 10.6544L29.8544 7.84262C30.716 6.98107 31.2 5.81256 31.2 4.59412C31.2 2.05686 29.1432 0 26.6059 0C25.3874 0 24.2189 0.484022 23.3573 1.34558L15.7456 8.95738Z" fill="#75AE2B"/>
</svg>
