<svg width="199" height="34" viewBox="0 0 199 34" fill="none" xmlns="http://www.w3.org/2000/svg">
<g filter="url(#filter0_d_25_1721)">
<g clip-path="url(#clip0_25_1721)">
<path d="M19.4289 0C16.8905 0 14.4561 1.00838 12.6612 2.8033L6.8033 8.66117C5.00838 10.4561 4 12.8905 4 15.4289C4 20.7149 8.28512 25 13.5711 25C16.1095 25 18.5439 23.9916 20.3388 22.1967L24.3908 18.1448C24.3908 18.1447 24.3908 18.1448 24.3908 18.1448L36.1967 6.33883C37.0539 5.48159 38.2166 5 39.4289 5C41.4586 5 43.1793 6.32284 43.7759 8.15339L47.5018 4.42747C45.8021 1.76528 42.8217 0 39.4289 0C36.8905 0 34.4561 1.00838 32.6612 2.8033L16.8033 18.6612C15.9461 19.5184 14.7834 20 13.5711 20C11.0465 20 9 17.9535 9 15.4289C9 14.2166 9.48159 13.0539 10.3388 12.1967L16.1967 6.33883C17.0539 5.48159 18.2166 5 19.4289 5C21.4587 5 23.1793 6.3229 23.7759 8.15351L27.5019 4.42756C25.8022 1.76533 22.8217 0 19.4289 0Z" fill="#75AE2B"/>
<path d="M36.8033 19.1612C35.9461 20.0184 34.7834 20.5 33.5711 20.5C31.5417 20.5 29.8211 19.1775 29.2243 17.3472L25.4985 21.0731C27.1983 23.7349 30.1786 25.5 33.5711 25.5C36.1095 25.5 38.5439 24.4916 40.3388 22.6967L56.1967 6.83883C57.0539 5.98159 58.2166 5.5 59.4289 5.5C61.9535 5.5 64 7.54653 64 10.0711C64 11.2834 63.5184 12.4461 62.6612 13.3033L56.8033 19.1612C55.9461 20.0184 54.7834 20.5 53.5711 20.5C51.5415 20.5 49.8208 19.1772 49.2242 17.3468L45.4983 21.0728C47.1981 23.7348 50.1784 25.5 53.5711 25.5C56.1095 25.5 58.5439 24.4916 60.3388 22.6967L66.1967 16.8388C67.9916 15.0439 69 12.6095 69 10.0711C69 4.78512 64.7149 0.5 59.4289 0.5C56.8905 0.5 54.4561 1.50838 52.6612 3.3033L36.8033 19.1612Z" fill="#75AE2B"/>
</g>
<path d="M83.4205 20.5H78.2642V5.95455H83.4631C84.9261 5.95455 86.1856 6.24574 87.2415 6.82812C88.2973 7.40578 89.1094 8.23674 89.6776 9.32102C90.2505 10.4053 90.5369 11.7027 90.5369 13.2131C90.5369 14.7282 90.2505 16.0303 89.6776 17.1193C89.1094 18.2083 88.2926 19.044 87.2273 19.6264C86.1667 20.2088 84.8977 20.5 83.4205 20.5ZM81.3395 17.8651H83.2926C84.2017 17.8651 84.9664 17.7041 85.5866 17.3821C86.2116 17.0554 86.6804 16.5511 86.9929 15.8693C87.3101 15.1828 87.4688 14.2973 87.4688 13.2131C87.4688 12.1383 87.3101 11.2599 86.9929 10.5781C86.6804 9.89631 86.214 9.39441 85.5938 9.07244C84.9735 8.75047 84.2088 8.58949 83.2997 8.58949H81.3395V17.8651ZM92.7582 20.5V9.59091H95.6914V11.4943H95.805C96.0039 10.8172 96.3377 10.3059 96.8065 9.96023C97.2752 9.60985 97.815 9.43466 98.4258 9.43466C98.5773 9.43466 98.7406 9.44413 98.9158 9.46307C99.091 9.48201 99.2449 9.50805 99.3775 9.54119V12.2259C99.2354 12.1832 99.0389 12.1454 98.788 12.1122C98.5371 12.0791 98.3074 12.0625 98.0991 12.0625C97.654 12.0625 97.2563 12.1596 96.9059 12.3537C96.5603 12.5431 96.2856 12.8082 96.082 13.1491C95.8832 13.4901 95.7837 13.883 95.7837 14.3281V20.5H92.7582ZM107.938 15.8551V9.59091H110.963V20.5H108.058V18.5185H107.945C107.698 19.1577 107.289 19.6714 106.716 20.0597C106.148 20.4479 105.454 20.642 104.635 20.642C103.906 20.642 103.264 20.4763 102.71 20.1449C102.156 19.8134 101.723 19.3423 101.411 18.7315C101.103 18.1207 100.946 17.3892 100.942 16.5369V9.59091H103.967V15.9972C103.972 16.6411 104.145 17.1501 104.486 17.5241C104.827 17.8982 105.284 18.0852 105.857 18.0852C106.221 18.0852 106.562 18.0024 106.879 17.8366C107.196 17.6662 107.452 17.4152 107.646 17.0838C107.845 16.7524 107.942 16.3428 107.938 15.8551ZM118.298 24.8182C117.318 24.8182 116.477 24.6832 115.777 24.4134C115.081 24.1482 114.527 23.786 114.115 23.3267C113.703 22.8674 113.435 22.3513 113.312 21.7784L116.11 21.402C116.196 21.6198 116.331 21.8234 116.515 22.0128C116.7 22.2022 116.944 22.3537 117.247 22.4673C117.555 22.5857 117.929 22.6449 118.369 22.6449C119.027 22.6449 119.569 22.4839 119.995 22.1619C120.426 21.8447 120.642 21.312 120.642 20.5639V18.5682H120.514C120.381 18.8712 120.182 19.1577 119.917 19.4276C119.652 19.6974 119.311 19.9176 118.895 20.0881C118.478 20.2585 117.981 20.3438 117.403 20.3438C116.584 20.3438 115.838 20.1544 115.166 19.7756C114.498 19.392 113.966 18.8073 113.568 18.0213C113.175 17.2306 112.978 16.2315 112.978 15.0241C112.978 13.7884 113.18 12.7562 113.582 11.9276C113.984 11.099 114.52 10.4787 115.187 10.0668C115.859 9.65483 116.596 9.44886 117.396 9.44886C118.007 9.44886 118.518 9.55303 118.93 9.76136C119.342 9.96496 119.673 10.2206 119.924 10.5284C120.18 10.8314 120.377 11.1297 120.514 11.4233H120.627V9.59091H123.632V20.6065C123.632 21.5346 123.404 22.3111 122.95 22.9361C122.495 23.5611 121.866 24.0298 121.061 24.3423C120.261 24.6596 119.34 24.8182 118.298 24.8182ZM118.362 18.071C118.85 18.071 119.261 17.9503 119.598 17.7088C119.939 17.4626 120.199 17.1122 120.379 16.6577C120.564 16.1984 120.656 15.6491 120.656 15.0099C120.656 14.3707 120.566 13.8168 120.386 13.348C120.206 12.8745 119.946 12.5076 119.605 12.2472C119.264 11.9867 118.85 11.8565 118.362 11.8565C117.865 11.8565 117.446 11.9915 117.105 12.2614C116.764 12.5265 116.506 12.8958 116.331 13.3693C116.155 13.8428 116.068 14.3897 116.068 15.0099C116.068 15.6397 116.155 16.1842 116.331 16.6435C116.511 17.098 116.769 17.4508 117.105 17.7017C117.446 17.9479 117.865 18.071 118.362 18.071ZM135.116 12.7017L132.346 12.8722C132.299 12.6354 132.197 12.4223 132.041 12.233C131.885 12.0388 131.679 11.8849 131.423 11.7713C131.172 11.6529 130.871 11.5938 130.521 11.5938C130.052 11.5938 129.657 11.6932 129.335 11.892C129.013 12.0862 128.852 12.3466 128.852 12.6733C128.852 12.9337 128.956 13.1539 129.164 13.3338C129.373 13.5137 129.73 13.6581 130.237 13.767L132.211 14.1648C133.272 14.3826 134.063 14.733 134.583 15.2159C135.104 15.6989 135.365 16.3333 135.365 17.1193C135.365 17.8343 135.154 18.4616 134.733 19.0014C134.316 19.5412 133.743 19.9626 133.014 20.2656C132.289 20.5639 131.454 20.7131 130.507 20.7131C129.063 20.7131 127.912 20.4124 127.055 19.8111C126.203 19.205 125.703 18.3812 125.556 17.3395L128.532 17.1832C128.622 17.6236 128.84 17.9598 129.186 18.1918C129.531 18.419 129.974 18.5327 130.514 18.5327C131.044 18.5327 131.47 18.4309 131.792 18.2273C132.119 18.0189 132.285 17.7514 132.289 17.4247C132.285 17.1501 132.169 16.9252 131.941 16.75C131.714 16.5701 131.364 16.4328 130.89 16.3381L129.001 15.9616C127.936 15.7486 127.143 15.3793 126.622 14.8537C126.106 14.3281 125.848 13.6581 125.848 12.8438C125.848 12.143 126.037 11.5393 126.416 11.0327C126.799 10.526 127.337 10.1354 128.028 9.8608C128.724 9.58617 129.538 9.44886 130.471 9.44886C131.849 9.44886 132.933 9.74006 133.724 10.3224C134.52 10.9048 134.984 11.6979 135.116 12.7017ZM142.199 20.7131C141.081 20.7131 140.12 20.4763 139.315 20.0028C138.515 19.5246 137.9 18.8617 137.469 18.0142C137.043 17.1667 136.83 16.1913 136.83 15.0881C136.83 13.9706 137.045 12.9905 137.476 12.1477C137.911 11.3002 138.529 10.6397 139.33 10.1662C140.13 9.68797 141.081 9.44886 142.185 9.44886C143.136 9.44886 143.97 9.62169 144.685 9.96733C145.4 10.313 145.965 10.7983 146.382 11.4233C146.799 12.0483 147.028 12.7822 147.071 13.625H144.216C144.135 13.0805 143.922 12.6425 143.577 12.3111C143.236 11.9749 142.788 11.8068 142.234 11.8068C141.766 11.8068 141.356 11.9347 141.006 12.1903C140.66 12.4413 140.39 12.8082 140.196 13.2912C140.002 13.7741 139.905 14.3589 139.905 15.0455C139.905 15.7415 140 16.3333 140.189 16.821C140.383 17.3087 140.655 17.6804 141.006 17.9361C141.356 18.1918 141.766 18.3196 142.234 18.3196C142.58 18.3196 142.89 18.2486 143.165 18.1065C143.444 17.9645 143.674 17.7585 143.854 17.4886C144.038 17.214 144.159 16.8849 144.216 16.5014H147.071C147.024 17.3348 146.796 18.0687 146.389 18.7031C145.987 19.3329 145.43 19.8253 144.72 20.1804C144.01 20.5355 143.17 20.7131 142.199 20.7131ZM152.034 14.1932V20.5H149.008V5.95455H151.949V11.5156H152.076C152.323 10.8717 152.72 10.3674 153.27 10.0028C153.819 9.63352 154.508 9.44886 155.336 9.44886C156.094 9.44886 156.754 9.61458 157.318 9.94602C157.886 10.2727 158.326 10.7438 158.639 11.3594C158.956 11.9702 159.112 12.7017 159.108 13.554V20.5H156.082V14.0938C156.087 13.4214 155.916 12.8982 155.571 12.5241C155.23 12.1501 154.752 11.9631 154.136 11.9631C153.724 11.9631 153.359 12.0507 153.042 12.2259C152.73 12.401 152.484 12.6567 152.304 12.9929C152.128 13.3243 152.038 13.7244 152.034 14.1932ZM164.599 20.706C163.903 20.706 163.283 20.5852 162.739 20.3438C162.194 20.0975 161.763 19.7353 161.446 19.2571C161.134 18.7741 160.977 18.1728 160.977 17.4531C160.977 16.8471 161.089 16.3381 161.311 15.9261C161.534 15.5142 161.837 15.1828 162.22 14.9318C162.604 14.6809 163.039 14.4915 163.527 14.3636C164.019 14.2358 164.536 14.1458 165.075 14.0938C165.71 14.0275 166.221 13.9659 166.609 13.9091C166.998 13.8475 167.279 13.7576 167.455 13.6392C167.63 13.5208 167.717 13.3456 167.717 13.1136V13.071C167.717 12.6212 167.575 12.2732 167.291 12.027C167.012 11.7808 166.614 11.6577 166.098 11.6577C165.554 11.6577 165.12 11.7784 164.798 12.0199C164.476 12.2566 164.263 12.5549 164.159 12.9148L161.361 12.6875C161.503 12.0246 161.782 11.4517 162.199 10.9688C162.616 10.4811 163.153 10.107 163.811 9.84659C164.474 9.58144 165.241 9.44886 166.112 9.44886C166.718 9.44886 167.298 9.51989 167.852 9.66193C168.411 9.80398 168.906 10.0241 169.337 10.3224C169.772 10.6207 170.116 11.0043 170.366 11.473C170.617 11.937 170.743 12.4934 170.743 13.142V20.5H167.874V18.9872H167.788C167.613 19.3281 167.379 19.6288 167.085 19.8892C166.792 20.1449 166.439 20.3461 166.027 20.4929C165.615 20.6349 165.139 20.706 164.599 20.706ZM165.466 18.6179C165.911 18.6179 166.304 18.5303 166.645 18.3551C166.986 18.1752 167.253 17.9337 167.447 17.6307C167.642 17.3277 167.739 16.9844 167.739 16.6009V15.4432C167.644 15.5047 167.514 15.5616 167.348 15.6136C167.187 15.661 167.005 15.706 166.801 15.7486C166.598 15.7865 166.394 15.822 166.19 15.8551C165.987 15.8835 165.802 15.9096 165.636 15.9332C165.281 15.9853 164.971 16.0682 164.706 16.1818C164.441 16.2955 164.235 16.4493 164.088 16.6435C163.941 16.8329 163.868 17.0696 163.868 17.3537C163.868 17.7656 164.017 18.0805 164.315 18.2983C164.618 18.5114 165.002 18.6179 165.466 18.6179ZM173.09 20.5V9.59091H176.116V20.5H173.09ZM174.61 8.18466C174.16 8.18466 173.774 8.03551 173.452 7.73722C173.135 7.43419 172.977 7.07197 172.977 6.65057C172.977 6.2339 173.135 5.87642 173.452 5.57812C173.774 5.27509 174.16 5.12358 174.61 5.12358C175.06 5.12358 175.443 5.27509 175.761 5.57812C176.083 5.87642 176.244 6.2339 176.244 6.65057C176.244 7.07197 176.083 7.43419 175.761 7.73722C175.443 8.03551 175.06 8.18466 174.61 8.18466ZM181.565 14.1932V20.5H178.539V9.59091H181.423V11.5156H181.551C181.792 10.8812 182.197 10.3793 182.765 10.0099C183.333 9.63589 184.022 9.44886 184.832 9.44886C185.59 9.44886 186.25 9.61458 186.814 9.94602C187.377 10.2775 187.815 10.7509 188.127 11.3665C188.44 11.9773 188.596 12.7064 188.596 13.554V20.5H185.571V14.0938C185.575 13.4261 185.405 12.9053 185.059 12.5312C184.714 12.1525 184.238 11.9631 183.632 11.9631C183.225 11.9631 182.865 12.0507 182.552 12.2259C182.244 12.401 182.003 12.6567 181.828 12.9929C181.657 13.3243 181.57 13.7244 181.565 14.1932ZM192.749 20.6847C192.281 20.6847 191.878 20.5189 191.542 20.1875C191.21 19.8513 191.045 19.4489 191.045 18.9801C191.045 18.5161 191.21 18.1184 191.542 17.7869C191.878 17.4555 192.281 17.2898 192.749 17.2898C193.204 17.2898 193.602 17.4555 193.942 17.7869C194.283 18.1184 194.454 18.5161 194.454 18.9801C194.454 19.2926 194.373 19.5791 194.212 19.8395C194.056 20.0952 193.85 20.3011 193.594 20.4574C193.339 20.6089 193.057 20.6847 192.749 20.6847Z" fill="#4B4B4C"/>
</g>
<defs>
<filter id="filter0_d_25_1721" x="0" y="0.5" width="198.454" height="33" filterUnits="userSpaceOnUse" color-interpolation-filters="sRGB">
<feFlood flood-opacity="0" result="BackgroundImageFix"/>
<feColorMatrix in="SourceAlpha" type="matrix" values="0 0 0 0 0 0 0 0 0 0 0 0 0 0 0 0 0 0 127 0" result="hardAlpha"/>
<feOffset dy="4"/>
<feGaussianBlur stdDeviation="2"/>
<feComposite in2="hardAlpha" operator="out"/>
<feColorMatrix type="matrix" values="0 0 0 0 0 0 0 0 0 0 0 0 0 0 0 0 0 0 0.25 0"/>
<feBlend mode="normal" in2="BackgroundImageFix" result="effect1_dropShadow_25_1721"/>
<feBlend mode="normal" in="SourceGraphic" in2="effect1_dropShadow_25_1721" result="shape"/>
</filter>
<clipPath id="clip0_25_1721">
<rect width="65" height="25" fill="white" transform="translate(4 0.5)"/>
</clipPath>
</defs>
</svg>
