<svg width="192" height="26" viewBox="0 0 192 26" fill="none" xmlns="http://www.w3.org/2000/svg">
<g clip-path="url(#clip0_210_3924)">
<path d="M15.4289 0C12.8905 0 10.4561 1.00838 8.66117 2.8033L2.8033 8.66117C1.00838 10.4561 0 12.8905 0 15.4289C0 20.7149 4.28512 25 9.57108 25C12.1095 25 14.5439 23.9916 16.3388 22.1967L20.3908 18.1448C20.3908 18.1447 20.3908 18.1448 20.3908 18.1448L32.1967 6.33883C33.0539 5.48159 34.2166 5 35.4289 5C37.4586 5 39.1793 6.32284 39.7759 8.15339L43.5018 4.42747C41.8021 1.76528 38.8217 0 35.4289 0C32.8905 0 30.4561 1.00838 28.6612 2.8033L12.8033 18.6612C11.9461 19.5184 10.7834 20 9.57108 20C7.04653 20 5 17.9535 5 15.4289C5 14.2166 5.48159 13.0539 6.33883 12.1967L12.1967 6.33883C13.0539 5.48159 14.2166 5 15.4289 5C17.4587 5 19.1793 6.3229 19.7759 8.15351L23.5019 4.42756C21.8022 1.76533 18.8217 0 15.4289 0Z" fill="#75AE2B"/>
<path d="M32.8033 19.1612C31.9461 20.0184 30.7834 20.5 29.5711 20.5C27.5417 20.5 25.8211 19.1775 25.2243 17.3472L21.4985 21.0731C23.1983 23.7349 26.1786 25.5 29.5711 25.5C32.1095 25.5 34.5439 24.4916 36.3388 22.6967L52.1967 6.83883C53.0539 5.98159 54.2166 5.5 55.4289 5.5C57.9535 5.5 60 7.54653 60 10.0711C60 11.2834 59.5184 12.4461 58.6612 13.3033L52.8033 19.1612C51.9461 20.0184 50.7834 20.5 49.5711 20.5C47.5415 20.5 45.8208 19.1772 45.2242 17.3468L41.4983 21.0728C43.1981 23.7348 46.1784 25.5 49.5711 25.5C52.1095 25.5 54.5439 24.4916 56.3388 22.6967L62.1967 16.8388C63.9916 15.0439 65 12.6095 65 10.0711C65 4.78512 60.7149 0.5 55.4289 0.5C52.8905 0.5 50.4561 1.50838 48.6612 3.3033L32.8033 19.1612Z" fill="#75AE2B"/>
</g>
<path d="M79.4205 20.5H74.2642V5.95455H79.4631C80.9261 5.95455 82.1856 6.24574 83.2415 6.82812C84.2973 7.40578 85.1094 8.23674 85.6776 9.32102C86.2505 10.4053 86.5369 11.7027 86.5369 13.2131C86.5369 14.7282 86.2505 16.0303 85.6776 17.1193C85.1094 18.2083 84.2926 19.044 83.2273 19.6264C82.1667 20.2088 80.8977 20.5 79.4205 20.5ZM77.3395 17.8651H79.2926C80.2017 17.8651 80.9664 17.7041 81.5866 17.3821C82.2116 17.0554 82.6804 16.5511 82.9929 15.8693C83.3101 15.1828 83.4688 14.2973 83.4688 13.2131C83.4688 12.1383 83.3101 11.2599 82.9929 10.5781C82.6804 9.89631 82.214 9.39441 81.5938 9.07244C80.9735 8.75047 80.2088 8.58949 79.2997 8.58949H77.3395V17.8651ZM88.7582 20.5V9.59091H91.6914V11.4943H91.805C92.0039 10.8172 92.3377 10.3059 92.8065 9.96023C93.2752 9.60985 93.815 9.43466 94.4258 9.43466C94.5773 9.43466 94.7406 9.44413 94.9158 9.46307C95.091 9.48201 95.2449 9.50805 95.3775 9.54119V12.2259C95.2354 12.1832 95.0389 12.1454 94.788 12.1122C94.5371 12.0791 94.3074 12.0625 94.0991 12.0625C93.654 12.0625 93.2563 12.1596 92.9059 12.3537C92.5603 12.5431 92.2856 12.8082 92.082 13.1491C91.8832 13.4901 91.7837 13.883 91.7837 14.3281V20.5H88.7582ZM103.938 15.8551V9.59091H106.963V20.5H104.058V18.5185H103.945C103.698 19.1577 103.289 19.6714 102.716 20.0597C102.148 20.4479 101.454 20.642 100.635 20.642C99.9058 20.642 99.2642 20.4763 98.7102 20.1449C98.1563 19.8134 97.723 19.3423 97.4105 18.7315C97.1027 18.1207 96.9465 17.3892 96.9418 16.5369V9.59091H99.9673V15.9972C99.9721 16.6411 100.145 17.1501 100.486 17.5241C100.827 17.8982 101.284 18.0852 101.857 18.0852C102.221 18.0852 102.562 18.0024 102.879 17.8366C103.196 17.6662 103.452 17.4152 103.646 17.0838C103.845 16.7524 103.942 16.3428 103.938 15.8551ZM114.298 24.8182C113.318 24.8182 112.477 24.6832 111.777 24.4134C111.081 24.1482 110.527 23.786 110.115 23.3267C109.703 22.8674 109.435 22.3513 109.312 21.7784L112.11 21.402C112.196 21.6198 112.331 21.8234 112.515 22.0128C112.7 22.2022 112.944 22.3537 113.247 22.4673C113.555 22.5857 113.929 22.6449 114.369 22.6449C115.027 22.6449 115.569 22.4839 115.995 22.1619C116.426 21.8447 116.642 21.312 116.642 20.5639V18.5682H116.514C116.381 18.8712 116.182 19.1577 115.917 19.4276C115.652 19.6974 115.311 19.9176 114.895 20.0881C114.478 20.2585 113.981 20.3438 113.403 20.3438C112.584 20.3438 111.838 20.1544 111.166 19.7756C110.498 19.392 109.966 18.8073 109.568 18.0213C109.175 17.2306 108.978 16.2315 108.978 15.0241C108.978 13.7884 109.18 12.7562 109.582 11.9276C109.984 11.099 110.52 10.4787 111.187 10.0668C111.859 9.65483 112.596 9.44886 113.396 9.44886C114.007 9.44886 114.518 9.55303 114.93 9.76136C115.342 9.96496 115.673 10.2206 115.924 10.5284C116.18 10.8314 116.377 11.1297 116.514 11.4233H116.627V9.59091H119.632V20.6065C119.632 21.5346 119.404 22.3111 118.95 22.9361C118.495 23.5611 117.866 24.0298 117.061 24.3423C116.261 24.6596 115.34 24.8182 114.298 24.8182ZM114.362 18.071C114.85 18.071 115.261 17.9503 115.598 17.7088C115.939 17.4626 116.199 17.1122 116.379 16.6577C116.564 16.1984 116.656 15.6491 116.656 15.0099C116.656 14.3707 116.566 13.8168 116.386 13.348C116.206 12.8745 115.946 12.5076 115.605 12.2472C115.264 11.9867 114.85 11.8565 114.362 11.8565C113.865 11.8565 113.446 11.9915 113.105 12.2614C112.764 12.5265 112.506 12.8958 112.331 13.3693C112.155 13.8428 112.068 14.3897 112.068 15.0099C112.068 15.6397 112.155 16.1842 112.331 16.6435C112.511 17.098 112.769 17.4508 113.105 17.7017C113.446 17.9479 113.865 18.071 114.362 18.071ZM131.116 12.7017L128.346 12.8722C128.299 12.6354 128.197 12.4223 128.041 12.233C127.885 12.0388 127.679 11.8849 127.423 11.7713C127.172 11.6529 126.871 11.5938 126.521 11.5938C126.052 11.5938 125.657 11.6932 125.335 11.892C125.013 12.0862 124.852 12.3466 124.852 12.6733C124.852 12.9337 124.956 13.1539 125.164 13.3338C125.373 13.5137 125.73 13.6581 126.237 13.767L128.211 14.1648C129.272 14.3826 130.063 14.733 130.583 15.2159C131.104 15.6989 131.365 16.3333 131.365 17.1193C131.365 17.8343 131.154 18.4616 130.733 19.0014C130.316 19.5412 129.743 19.9626 129.014 20.2656C128.289 20.5639 127.454 20.7131 126.507 20.7131C125.063 20.7131 123.912 20.4124 123.055 19.8111C122.203 19.205 121.703 18.3812 121.556 17.3395L124.532 17.1832C124.622 17.6236 124.84 17.9598 125.186 18.1918C125.531 18.419 125.974 18.5327 126.514 18.5327C127.044 18.5327 127.47 18.4309 127.792 18.2273C128.119 18.0189 128.285 17.7514 128.289 17.4247C128.285 17.1501 128.169 16.9252 127.941 16.75C127.714 16.5701 127.364 16.4328 126.89 16.3381L125.001 15.9616C123.936 15.7486 123.143 15.3793 122.622 14.8537C122.106 14.3281 121.848 13.6581 121.848 12.8438C121.848 12.143 122.037 11.5393 122.416 11.0327C122.799 10.526 123.337 10.1354 124.028 9.8608C124.724 9.58617 125.538 9.44886 126.471 9.44886C127.849 9.44886 128.933 9.74006 129.724 10.3224C130.52 10.9048 130.984 11.6979 131.116 12.7017ZM138.199 20.7131C137.081 20.7131 136.12 20.4763 135.315 20.0028C134.515 19.5246 133.9 18.8617 133.469 18.0142C133.043 17.1667 132.83 16.1913 132.83 15.0881C132.83 13.9706 133.045 12.9905 133.476 12.1477C133.911 11.3002 134.529 10.6397 135.33 10.1662C136.13 9.68797 137.081 9.44886 138.185 9.44886C139.136 9.44886 139.97 9.62169 140.685 9.96733C141.4 10.313 141.965 10.7983 142.382 11.4233C142.799 12.0483 143.028 12.7822 143.071 13.625H140.216C140.135 13.0805 139.922 12.6425 139.577 12.3111C139.236 11.9749 138.788 11.8068 138.234 11.8068C137.766 11.8068 137.356 11.9347 137.006 12.1903C136.66 12.4413 136.39 12.8082 136.196 13.2912C136.002 13.7741 135.905 14.3589 135.905 15.0455C135.905 15.7415 136 16.3333 136.189 16.821C136.383 17.3087 136.655 17.6804 137.006 17.9361C137.356 18.1918 137.766 18.3196 138.234 18.3196C138.58 18.3196 138.89 18.2486 139.165 18.1065C139.444 17.9645 139.674 17.7585 139.854 17.4886C140.038 17.214 140.159 16.8849 140.216 16.5014H143.071C143.024 17.3348 142.796 18.0687 142.389 18.7031C141.987 19.3329 141.43 19.8253 140.72 20.1804C140.01 20.5355 139.17 20.7131 138.199 20.7131ZM148.034 14.1932V20.5H145.008V5.95455H147.949V11.5156H148.076C148.323 10.8717 148.72 10.3674 149.27 10.0028C149.819 9.63352 150.508 9.44886 151.336 9.44886C152.094 9.44886 152.754 9.61458 153.318 9.94602C153.886 10.2727 154.326 10.7438 154.639 11.3594C154.956 11.9702 155.112 12.7017 155.108 13.554V20.5H152.082V14.0938C152.087 13.4214 151.916 12.8982 151.571 12.5241C151.23 12.1501 150.752 11.9631 150.136 11.9631C149.724 11.9631 149.359 12.0507 149.042 12.2259C148.73 12.401 148.484 12.6567 148.304 12.9929C148.128 13.3243 148.038 13.7244 148.034 14.1932ZM160.599 20.706C159.903 20.706 159.283 20.5852 158.739 20.3438C158.194 20.0975 157.763 19.7353 157.446 19.2571C157.134 18.7741 156.977 18.1728 156.977 17.4531C156.977 16.8471 157.089 16.3381 157.311 15.9261C157.534 15.5142 157.837 15.1828 158.22 14.9318C158.604 14.6809 159.039 14.4915 159.527 14.3636C160.019 14.2358 160.536 14.1458 161.075 14.0938C161.71 14.0275 162.221 13.9659 162.609 13.9091C162.998 13.8475 163.279 13.7576 163.455 13.6392C163.63 13.5208 163.717 13.3456 163.717 13.1136V13.071C163.717 12.6212 163.575 12.2732 163.291 12.027C163.012 11.7808 162.614 11.6577 162.098 11.6577C161.554 11.6577 161.12 11.7784 160.798 12.0199C160.476 12.2566 160.263 12.5549 160.159 12.9148L157.361 12.6875C157.503 12.0246 157.782 11.4517 158.199 10.9688C158.616 10.4811 159.153 10.107 159.811 9.84659C160.474 9.58144 161.241 9.44886 162.112 9.44886C162.718 9.44886 163.298 9.51989 163.852 9.66193C164.411 9.80398 164.906 10.0241 165.337 10.3224C165.772 10.6207 166.116 11.0043 166.366 11.473C166.617 11.937 166.743 12.4934 166.743 13.142V20.5H163.874V18.9872H163.788C163.613 19.3281 163.379 19.6288 163.085 19.8892C162.792 20.1449 162.439 20.3461 162.027 20.4929C161.615 20.6349 161.139 20.706 160.599 20.706ZM161.466 18.6179C161.911 18.6179 162.304 18.5303 162.645 18.3551C162.986 18.1752 163.253 17.9337 163.447 17.6307C163.642 17.3277 163.739 16.9844 163.739 16.6009V15.4432C163.644 15.5047 163.514 15.5616 163.348 15.6136C163.187 15.661 163.005 15.706 162.801 15.7486C162.598 15.7865 162.394 15.822 162.19 15.8551C161.987 15.8835 161.802 15.9096 161.636 15.9332C161.281 15.9853 160.971 16.0682 160.706 16.1818C160.441 16.2955 160.235 16.4493 160.088 16.6435C159.941 16.8329 159.868 17.0696 159.868 17.3537C159.868 17.7656 160.017 18.0805 160.315 18.2983C160.618 18.5114 161.002 18.6179 161.466 18.6179ZM169.09 20.5V9.59091H172.116V20.5H169.09ZM170.61 8.18466C170.16 8.18466 169.774 8.03551 169.452 7.73722C169.135 7.43419 168.977 7.07197 168.977 6.65057C168.977 6.2339 169.135 5.87642 169.452 5.57812C169.774 5.27509 170.16 5.12358 170.61 5.12358C171.06 5.12358 171.443 5.27509 171.761 5.57812C172.083 5.87642 172.244 6.2339 172.244 6.65057C172.244 7.07197 172.083 7.43419 171.761 7.73722C171.443 8.03551 171.06 8.18466 170.61 8.18466ZM177.565 14.1932V20.5H174.539V9.59091H177.423V11.5156H177.551C177.792 10.8812 178.197 10.3793 178.765 10.0099C179.333 9.63589 180.022 9.44886 180.832 9.44886C181.59 9.44886 182.25 9.61458 182.814 9.94602C183.377 10.2775 183.815 10.7509 184.127 11.3665C184.44 11.9773 184.596 12.7064 184.596 13.554V20.5H181.571V14.0938C181.575 13.4261 181.405 12.9053 181.059 12.5312C180.714 12.1525 180.238 11.9631 179.632 11.9631C179.225 11.9631 178.865 12.0507 178.552 12.2259C178.244 12.401 178.003 12.6567 177.828 12.9929C177.657 13.3243 177.57 13.7244 177.565 14.1932ZM188.749 20.6847C188.281 20.6847 187.878 20.5189 187.542 20.1875C187.21 19.8513 187.045 19.4489 187.045 18.9801C187.045 18.5161 187.21 18.1184 187.542 17.7869C187.878 17.4555 188.281 17.2898 188.749 17.2898C189.204 17.2898 189.602 17.4555 189.942 17.7869C190.283 18.1184 190.454 18.5161 190.454 18.9801C190.454 19.2926 190.373 19.5791 190.212 19.8395C190.056 20.0952 189.85 20.3011 189.594 20.4574C189.339 20.6089 189.057 20.6847 188.749 20.6847Z" fill="#4B4B4C"/>
<defs>
<clipPath id="clip0_210_3924">
<rect width="65" height="25" fill="white" transform="translate(0 0.5)"/>
</clipPath>
</defs>
</svg>
